<?xml version="1.0" encoding="UTF-8"?>
<svg xmlns="http://www.w3.org/2000/svg" width="172" height="40" viewBox="0 0 172 40" fill="none">
  <path d="M18.5863 22.9583L2.73627 14.0267C2.65613 13.978 2.58779 13.9117 2.53623 13.8329C2.48467 13.754 2.4512 13.6644 2.43827 13.5708C2.42534 13.4772 2.43328 13.3818 2.4615 13.2916C2.48972 13.2015 2.53752 13.1189 2.60139 13.0498C2.99767 12.6493 3.48267 12.35 4.01617 12.1768C4.54967 12.0036 5.11631 11.9615 5.66913 12.0539L11.0737 12.9578L12.3002 11.7209C12.5466 11.4722 12.8805 11.3325 13.2287 11.3325C13.5768 11.3325 13.9108 11.4722 14.1572 11.7209C14.3845 11.9533 14.5192 12.2623 14.5354 12.5888C14.5516 12.9153 14.4482 13.2364 14.245 13.4907L18.0467 14.125L19.4018 12.758C19.5217 12.6258 19.6668 12.5195 19.8284 12.4455C19.99 12.3715 20.1647 12.3314 20.3421 12.3275C20.5194 12.3236 20.6957 12.3561 20.8603 12.4229C21.0249 12.4898 21.1744 12.5896 21.2999 12.7164C21.4253 12.8433 21.524 12.9945 21.5901 13.1609C21.6562 13.3274 21.6883 13.5056 21.6845 13.6849C21.6807 13.8643 21.641 14.0409 21.5678 14.2043C21.4946 14.3677 21.3895 14.5145 21.2588 14.6357L21.2337 14.661L26.0047 15.4603L28.9281 12.5011L19.9946 3.46801C17.7977 1.24743 14.8184 0 11.7121 0C8.6057 0 5.62648 1.24743 3.42949 3.46801C1.23359 5.68896 0 8.70088 0 11.8414C0 14.9819 1.23359 17.9938 3.42949 20.2147L12.3661 29.251L18.5863 22.9583Z" fill="#3685FB"></path>
  <path d="M10.9701 18.6669L6.4375 23.2532L12.366 29.2478L18.5861 22.9583L10.9701 18.6669Z" fill="#44D7B6"></path>
  <path d="M42.5666 3.46798C40.3701 1.24759 37.3914 0.000244141 34.2855 0.000244141C31.1797 0.000244141 28.201 1.24759 26.0045 3.46798L15.8289 13.7539L18.0466 14.125L19.4017 12.758C19.5216 12.6258 19.6667 12.5195 19.8283 12.4455C19.9899 12.3715 20.1646 12.3314 20.3419 12.3275C20.5193 12.3236 20.6956 12.3561 20.8602 12.4229C21.0248 12.4898 21.1743 12.5896 21.2997 12.7164C21.4252 12.8432 21.5239 12.9944 21.59 13.1609C21.6561 13.3273 21.6882 13.5056 21.6844 13.6849C21.6805 13.8642 21.6408 14.0409 21.5677 14.2043C21.4945 14.3677 21.3894 14.5144 21.2586 14.6356L21.2335 14.661L26.0045 15.4603L29.4079 12.0158C31.4818 9.91984 34.0864 8.44172 36.9361 7.74347C37.1287 7.69668 37.3299 7.70065 37.5206 7.75499C37.7112 7.80934 37.8849 7.91225 38.025 8.05387C38.165 8.1955 38.2668 8.3711 38.3206 8.56388C38.3743 8.75665 38.3782 8.96015 38.3319 9.1549C37.6414 12.0364 36.1796 14.67 34.1067 16.7671L30.694 20.2147L31.4844 25.0389L31.5095 25.0135C31.7592 24.7821 32.0876 24.657 32.4262 24.6644C32.7649 24.6718 33.0876 24.8112 33.3271 25.0533C33.5666 25.2955 33.7044 25.6219 33.7118 25.9643C33.7191 26.3067 33.5954 26.6388 33.3665 26.8912L32.0145 28.2614L32.3815 30.5038L42.554 20.2147C44.7516 17.9955 45.9874 14.9845 45.9898 11.844C45.9921 8.70348 44.7608 5.69061 42.5666 3.46798Z" fill="#44D7B6"></path>
  <path d="M23.2912 27.7159L17.0711 34.0054L22.9995 40L27.5353 35.4168L23.2912 27.7159Z" fill="#44D7B6"></path>
  <path d="M73.856 18.4279C74.7678 19.0999 75.4996 19.9639 76.0515 21.0199C76.6034 22.0519 76.8793 23.1799 76.8793 24.4039C76.8793 25.4599 76.6754 26.4439 76.2675 27.3559C75.8835 28.2679 75.3437 29.0719 74.6478 29.7679C73.976 30.4639 73.1721 31.0159 72.2363 31.4239C71.3245 31.8079 70.3528 31.9999 69.321 31.9999H64.0301L61.6906 27.6079H69.393C69.7289 27.6079 70.0408 27.5239 70.3288 27.3559C70.6407 27.1639 70.9046 26.9359 71.1206 26.6719C71.3365 26.4079 71.5045 26.1079 71.6245 25.7719C71.7684 25.4359 71.8404 25.0999 71.8404 24.7639C71.8404 24.4039 71.7684 24.0559 71.6245 23.7199C71.5045 23.3599 71.3245 23.0479 71.0846 22.7839C70.8446 22.5199 70.5687 22.3039 70.2568 22.1359C69.9688 21.9679 69.6569 21.8839 69.321 21.8839H60.2869V31.9999H55.248V6.76392H67.5214C68.5531 6.76392 69.5249 6.96792 70.4367 7.37592C71.3725 7.75992 72.1764 8.29992 72.8482 8.99592C73.5441 9.66792 74.0839 10.4719 74.4679 11.4079C74.8758 12.3199 75.0797 13.2919 75.0797 14.3239C75.0797 15.0919 74.9717 15.8239 74.7558 16.5199C74.5398 17.1919 74.2399 17.8279 73.856 18.4279ZM67.5214 16.8799C67.8573 16.8799 68.1692 16.8079 68.4572 16.6639C68.7691 16.4959 69.045 16.2919 69.285 16.0519C69.5249 15.7879 69.7049 15.4879 69.8249 15.1519C69.9688 14.7919 70.0408 14.4199 70.0408 14.0359C70.0408 13.6519 69.9688 13.2919 69.8249 12.9559C69.7049 12.5959 69.5249 12.2839 69.285 12.0199C69.045 11.7559 68.7691 11.5519 68.4572 11.4079C68.1692 11.2399 67.8573 11.1559 67.5214 11.1559H60.2869V16.8799H67.5214Z" fill="#002248"></path>
  <path d="M87.3345 13.7119C88.6062 13.7119 89.8059 13.9639 90.9337 14.4679C92.0615 14.9479 93.0452 15.6079 93.8851 16.4479C94.7249 17.2879 95.3847 18.2719 95.8646 19.3999C96.3685 20.5279 96.6205 21.7399 96.6205 23.0359C96.6205 23.7319 96.5485 24.4039 96.4045 25.0519L96.3685 25.1239H87.2265L84.923 21.4519H91.7615C91.4256 20.4439 90.8617 19.6159 90.0699 18.9679C89.3021 18.3199 88.3903 17.9959 87.3345 17.9959C86.6866 17.9959 86.0748 18.1279 85.4989 18.3919C84.923 18.6559 84.4191 19.0159 83.9872 19.4719C83.5793 19.9039 83.2554 20.4319 83.0154 21.0559C82.7755 21.6559 82.6555 22.3159 82.6555 23.0359C82.6555 23.5879 82.7635 24.1639 82.9794 24.7639C83.1954 25.3399 83.5073 25.8679 83.9152 26.3479C84.3231 26.8279 84.815 27.2359 85.3909 27.5719C85.9668 27.8839 86.6146 28.0399 87.3345 28.0399C87.9823 28.0399 88.5702 27.9559 89.0981 27.7879C89.65 27.5959 90.1659 27.1879 90.6458 26.5639L90.6818 26.5279L90.7537 26.5639L94.9288 28.3999L94.8568 28.4719C93.993 29.6719 92.8893 30.6079 91.5456 31.2799C90.2259 31.9519 88.8222 32.2879 87.3345 32.2879C86.0388 32.2879 84.815 32.0479 83.6633 31.5679C82.5355 31.0879 81.5517 30.4279 80.7119 29.5879C79.8721 28.7479 79.2003 27.7639 78.6964 26.6359C78.2165 25.5079 77.9765 24.3079 77.9765 23.0359C77.9765 21.7399 78.2165 20.5279 78.6964 19.3999C79.2003 18.2719 79.8721 17.2879 80.7119 16.4479C81.5517 15.6079 82.5355 14.9479 83.6633 14.4679C84.815 13.9639 86.0388 13.7119 87.3345 13.7119Z" fill="#002248"></path>
  <path d="M94.9449 31.9999L99.7678 25.4479L104.159 27.4639L100.812 31.9999H94.9449ZM107.398 23.0719L114.021 31.9999H108.118V31.9639L101.567 23.1079L94.9808 13.9999H100.812L104.447 20.1199L108.118 13.9999H114.021L113.949 14.0359L107.398 23.0719Z" fill="#002248"></path>
  <path d="M125.999 13.7119C127.295 13.7119 128.518 13.9639 129.67 14.4679C130.822 14.9479 131.818 15.6199 132.658 16.4839C133.521 17.3239 134.193 18.3079 134.673 19.4359C135.177 20.5639 135.429 21.7759 135.429 23.0719C135.429 24.3919 135.177 25.6279 134.673 26.7799C134.193 27.9319 133.521 28.9399 132.658 29.8039C131.818 30.6439 130.822 31.3159 129.67 31.8199C128.518 32.2999 127.295 32.5399 125.999 32.5399C124.223 32.5399 122.748 32.0599 121.572 31.0999V31.0639L123.372 27.7519L123.408 27.7879C124.055 28.0759 124.715 28.2199 125.387 28.2199C126.083 28.2199 126.743 28.0879 127.367 27.8239C127.991 27.5599 128.53 27.1999 128.986 26.7439C129.466 26.2639 129.838 25.7119 130.102 25.0879C130.366 24.4639 130.498 23.7919 130.498 23.0719C130.498 22.3759 130.366 21.7279 130.102 21.1279C129.838 20.5039 129.466 19.9639 128.986 19.5079C128.53 19.0519 127.991 18.6919 127.367 18.4279C126.743 18.1639 126.083 18.0319 125.387 18.0319C124.667 18.0319 123.995 18.1639 123.372 18.4279C122.772 18.6919 122.244 19.0519 121.788 19.5079C121.332 19.9639 120.972 20.5039 120.708 21.1279C120.444 21.7279 120.312 22.3759 120.312 23.0719V39.1999H115.453V13.9999H120.312V16.4479C121.608 14.6239 123.504 13.7119 125.999 13.7119Z" fill="#002248"></path>
  <path d="M146.243 13.7119C147.515 13.7119 148.715 13.9639 149.843 14.4679C150.97 14.9479 151.954 15.6079 152.794 16.4479C153.634 17.2879 154.294 18.2719 154.774 19.3999C155.278 20.5279 155.529 21.7399 155.529 23.0359C155.529 23.7319 155.457 24.4039 155.314 25.0519L155.278 25.1239H146.136L143.832 21.4519H150.671C150.335 20.4439 149.771 19.6159 148.979 18.9679C148.211 18.3199 147.299 17.9959 146.243 17.9959C145.596 17.9959 144.984 18.1279 144.408 18.3919C143.832 18.6559 143.328 19.0159 142.896 19.4719C142.488 19.9039 142.164 20.4319 141.924 21.0559C141.684 21.6559 141.565 22.3159 141.565 23.0359C141.565 23.5879 141.672 24.1639 141.888 24.7639C142.104 25.3399 142.416 25.8679 142.824 26.3479C143.232 26.8279 143.724 27.2359 144.3 27.5719C144.876 27.8839 145.524 28.0399 146.243 28.0399C146.891 28.0399 147.479 27.9559 148.007 27.7879C148.559 27.5959 149.075 27.1879 149.555 26.5639L149.591 26.5279L149.663 26.5639L153.838 28.3999L153.766 28.4719C152.902 29.6719 151.798 30.6079 150.455 31.2799C149.135 31.9519 147.731 32.2879 146.243 32.2879C144.948 32.2879 143.724 32.0479 142.572 31.5679C141.445 31.0879 140.461 30.4279 139.621 29.5879C138.781 28.7479 138.109 27.7639 137.605 26.6359C137.125 25.5079 136.886 24.3079 136.886 23.0359C136.886 21.7399 137.125 20.5279 137.605 19.3999C138.109 18.2719 138.781 17.2879 139.621 16.4479C140.461 15.6079 141.445 14.9479 142.572 14.4679C143.724 13.9639 144.948 13.7119 146.243 13.7119Z" fill="#002248"></path>
  <path d="M172 14.7199L171.568 15.4399L169.733 18.7159L169.697 18.6799C168.905 18.2239 168.053 17.9959 167.141 17.9959C166.517 17.9959 165.929 18.1039 165.378 18.3199C164.826 18.5119 164.334 18.7999 163.902 19.1839C163.47 19.5439 163.098 19.9759 162.786 20.4799C162.498 20.9839 162.306 21.5239 162.21 22.0999V31.9999H157.315V13.9999H162.21V16.3399C163.482 14.5879 165.342 13.7119 167.789 13.7119C169.229 13.7119 170.62 14.0479 171.964 14.7199H172Z" fill="#002248"></path>
</svg>
